<svg xmlns="http://www.w3.org/2000/svg" xmlns:xlink="http://www.w3.org/1999/xlink" width="500" zoomAndPan="magnify" viewBox="0 0 375 374.999991" height="500" preserveAspectRatio="xMidYMid meet" version="1.0"><defs><g/><clipPath id="a942c5324e"><path d="M 46.417969 0 L 300 0 L 300 305.25 L 46.417969 305.25 Z M 46.417969 0 " clip-rule="nonzero"/></clipPath><clipPath id="583780a811"><path d="M 180 53 L 328.417969 53 L 328.417969 283 L 180 283 Z M 180 53 " clip-rule="nonzero"/></clipPath></defs><path fill="#51ade5" d="M 306.628906 8.046875 L 306.640625 8.039062 L 306.605469 8.046875 Z M 306.628906 8.046875 " fill-opacity="1" fill-rule="nonzero"/><g clip-path="url(#a942c5324e)"><path fill="#bc986a" d="M 133.429688 111.554688 C 130.214844 92.800781 151.578125 86.851562 151.578125 86.851562 C 162.757812 91.144531 136.644531 130.308594 133.429688 111.554688 Z M 137.867188 206.171875 C 138.117188 207.152344 138.347656 208.101562 138.554688 209.003906 C 138.753906 209.910156 138.914062 210.773438 139.066406 211.585938 C 139.214844 212.40625 139.347656 213.171875 139.464844 213.878906 C 139.582031 214.589844 139.65625 215.25 139.734375 215.839844 C 139.878906 217.027344 139.972656 217.96875 140.03125 218.609375 C 140.09375 219.253906 140.105469 219.597656 140.105469 219.597656 C 140.105469 219.597656 140.050781 219.429688 139.925781 219.113281 C 139.800781 218.796875 139.617188 218.332031 139.367188 217.734375 C 139.121094 217.140625 138.808594 216.414062 138.433594 215.578125 C 138.246094 215.164062 138.046875 214.71875 137.828125 214.246094 C 137.59375 213.785156 137.347656 213.289062 137.089844 212.773438 C 136.566406 211.742188 135.976562 210.621094 135.320312 209.441406 C 134.640625 208.257812 133.890625 207.011719 133.074219 205.722656 C 132.871094 205.402344 132.664062 205.074219 132.453125 204.742188 C 132.230469 204.417969 132.007812 204.089844 131.78125 203.757812 C 131.324219 203.09375 130.851562 202.421875 130.363281 201.746094 C 129.867188 201.074219 129.378906 200.386719 128.835938 199.703125 C 128.296875 199.023438 127.742188 198.339844 127.167969 197.65625 C 122.59375 192.175781 116.6875 186.769531 109.660156 182.726562 C 108.78125 182.222656 107.886719 181.734375 106.980469 181.277344 C 106.078125 180.8125 105.152344 180.367188 104.199219 179.953125 C 102.300781 179.125 100.359375 178.394531 98.367188 177.769531 C 96.347656 177.148438 94.28125 176.644531 92.175781 176.257812 C 91.117188 176.058594 90.054688 175.898438 88.976562 175.765625 C 87.890625 175.636719 86.792969 175.535156 85.6875 175.472656 C 86.230469 175.519531 88.285156 175.699219 91.332031 176.554688 C 92.855469 176.984375 94.65625 177.574219 96.648438 178.414062 C 98.613281 179.261719 100.820312 180.347656 103.121094 181.777344 C 104.265625 182.488281 105.449219 183.285156 106.664062 184.175781 C 107.882812 185.058594 109.078125 186.050781 110.324219 187.140625 C 111.578125 188.230469 112.796875 189.433594 114.039062 190.746094 C 114.65625 191.402344 115.296875 192.085938 115.902344 192.804688 C 116.511719 193.523438 117.121094 194.269531 117.734375 195.050781 C 118.976562 196.601562 120.132812 198.292969 121.320312 200.109375 C 121.921875 201.015625 122.464844 201.964844 123.03125 202.941406 C 123.589844 203.921875 124.167969 204.9375 124.695312 205.984375 C 126.847656 210.1875 128.777344 214.96875 130.359375 220.363281 C 129.476562 220.351562 128.589844 220.324219 127.703125 220.265625 C 122.03125 219.90625 116.304688 218.664062 110.796875 216.71875 C 108.054688 215.746094 105.308594 214.597656 102.652344 213.296875 C 101.316406 212.640625 100.03125 211.949219 98.714844 211.226562 C 97.410156 210.496094 96.121094 209.730469 94.867188 208.929688 C 86.171875 203.378906 80.167969 194.980469 74.523438 186.804688 C 72.070312 183.210938 68.800781 180.125 65.316406 178.011719 C 61.835938 175.9375 58.066406 174.308594 54.191406 173.394531 C 62.601562 169.121094 70.238281 166.050781 77.300781 164.339844 C 80.828125 163.484375 84.214844 162.957031 87.464844 162.746094 C 90.726562 162.539062 93.796875 162.664062 96.773438 163.078125 C 98.25 163.289062 99.71875 163.5625 101.117188 163.917969 C 102.519531 164.277344 103.886719 164.699219 105.226562 165.183594 C 107.925781 166.152344 110.402344 167.410156 112.792969 168.859375 C 117.492188 171.777344 121.632812 175.554688 125.015625 179.777344 C 131.863281 188.207031 135.878906 198.316406 137.867188 206.171875 Z M 258.175781 19.949219 C 237.875 8.136719 214.363281 1.257812 189.269531 0.949219 C 110.828125 -0.0117188 46.945312 62.921875 46.683594 141.46875 C 46.476562 204.074219 87.015625 257.222656 143.25 275.851562 L 153.925781 305.230469 C 150.898438 277.671875 138.015625 161.484375 133.628906 140.398438 C 131.402344 129.695312 136.539062 122.777344 142.902344 118.398438 C 159.34375 107.09375 177.027344 130.894531 161.46875 143.390625 C 160.339844 144.296875 159.550781 144.761719 159.550781 144.761719 L 165.96875 281.539062 L 174.203125 301.039062 L 167.5 152.542969 C 167.324219 148.621094 168.351562 144.714844 170.550781 141.460938 C 171.964844 139.378906 173.433594 136.5625 174.113281 133.226562 C 174.125 133.15625 174.144531 133.082031 174.164062 133.011719 C 174.738281 130.753906 173.863281 128.402344 172.0625 126.929688 C 168.898438 124.339844 166.480469 120.867188 165.261719 116.761719 C 163.984375 112.457031 163.898438 107.292969 166.863281 101.738281 C 167.121094 100.785156 163.917969 97.054688 163.410156 96.25 C 161.832031 93.753906 160.199219 91.789062 160.4375 88.730469 C 160.953125 82.03125 168.410156 77.660156 174.027344 75.675781 C 178.347656 74.148438 182.957031 75.175781 187.503906 74.46875 C 192.730469 73.664062 197.777344 71.8125 202.289062 69.050781 L 297.773438 10.652344 C 298.25 10.363281 298.730469 10.097656 299.222656 9.859375 L 258.175781 19.949219 " fill-opacity="1" fill-rule="nonzero"/></g><g clip-path="url(#583780a811)"><path fill="#51ade5" d="M 248.628906 151.621094 C 245.785156 153.347656 243.113281 155.871094 241.105469 158.804688 C 236.492188 165.488281 231.585938 172.351562 224.484375 176.886719 C 223.453125 177.542969 222.40625 178.167969 221.335938 178.757812 C 220.261719 179.355469 219.210938 179.921875 218.117188 180.453125 C 215.949219 181.515625 213.707031 182.457031 211.464844 183.25 C 206.964844 184.839844 202.285156 185.859375 197.648438 186.148438 C 196.925781 186.195312 196.199219 186.21875 195.476562 186.226562 C 196.769531 181.816406 198.347656 177.914062 200.109375 174.480469 C 200.535156 173.625 201.011719 172.796875 201.464844 171.992188 C 201.925781 171.195312 202.371094 170.417969 202.867188 169.679688 C 203.832031 168.191406 204.78125 166.8125 205.796875 165.542969 C 206.296875 164.90625 206.792969 164.296875 207.289062 163.710938 C 207.785156 163.121094 208.308594 162.566406 208.8125 162.027344 C 209.828125 160.953125 210.824219 159.972656 211.851562 159.082031 C 212.871094 158.195312 213.84375 157.382812 214.839844 156.65625 C 215.835938 155.929688 216.800781 155.277344 217.734375 154.695312 C 219.617188 153.53125 221.421875 152.644531 223.027344 151.949219 C 224.652344 151.265625 226.125 150.78125 227.371094 150.429688 C 229.863281 149.734375 231.539062 149.585938 231.988281 149.546875 C 231.082031 149.597656 230.179688 149.679688 229.296875 149.785156 C 228.414062 149.894531 227.546875 150.027344 226.683594 150.183594 C 224.960938 150.5 223.269531 150.917969 221.621094 151.421875 C 219.992188 151.929688 218.40625 152.53125 216.855469 153.207031 C 216.078125 153.546875 215.320312 153.90625 214.582031 154.285156 C 213.84375 154.667969 213.113281 155.0625 212.394531 155.472656 C 206.652344 158.777344 201.824219 163.195312 198.085938 167.675781 C 197.617188 168.234375 197.164062 168.792969 196.722656 169.347656 C 196.28125 169.90625 195.878906 170.464844 195.472656 171.019531 C 195.074219 171.566406 194.691406 172.117188 194.316406 172.660156 C 194.132812 172.933594 193.949219 173.199219 193.769531 173.464844 C 193.59375 173.738281 193.425781 174.003906 193.257812 174.261719 C 192.59375 175.316406 191.980469 176.335938 191.421875 177.304688 C 190.886719 178.269531 190.40625 179.183594 189.976562 180.027344 C 189.765625 180.449219 189.566406 180.851562 189.375 181.234375 C 189.195312 181.617188 189.03125 181.980469 188.878906 182.324219 C 188.574219 183.003906 188.320312 183.59375 188.117188 184.082031 C 187.914062 184.570312 187.757812 184.949219 187.660156 185.207031 C 187.558594 185.464844 187.515625 185.601562 187.515625 185.601562 C 187.515625 185.601562 187.523438 185.320312 187.574219 184.800781 C 187.621094 184.273438 187.695312 183.503906 187.820312 182.535156 C 187.882812 182.050781 187.941406 181.511719 188.039062 180.933594 C 188.132812 180.351562 188.238281 179.726562 188.363281 179.058594 C 188.488281 178.394531 188.617188 177.6875 188.78125 176.949219 C 188.953125 176.207031 189.136719 175.433594 189.34375 174.628906 C 190.964844 168.214844 194.25 159.949219 199.847656 153.0625 C 202.609375 149.613281 205.992188 146.527344 209.835938 144.140625 C 211.785156 142.957031 213.8125 141.929688 216.015625 141.136719 C 217.109375 140.742188 218.230469 140.394531 219.378906 140.105469 C 220.515625 139.8125 221.714844 139.585938 222.925781 139.417969 C 225.355469 139.078125 227.863281 138.976562 230.527344 139.148438 C 233.1875 139.316406 235.953125 139.746094 238.839844 140.453125 C 244.609375 141.847656 250.847656 144.355469 257.722656 147.84375 C 254.554688 148.59375 251.476562 149.925781 248.628906 151.621094 Z M 297.4375 53.796875 L 215.265625 108.917969 C 211.082031 111.726562 207.589844 115.488281 205.269531 119.964844 C 202.398438 125.507812 196.332031 132.84375 184.550781 131.90625 C 183.699219 131.835938 182.855469 131.722656 182.027344 131.5625 C 186.03125 135.210938 189.332031 141.339844 185.3125 150.96875 C 183.546875 155.207031 182.507812 159.707031 182.4375 164.300781 L 180.640625 282.78125 C 182.917969 282.894531 185.207031 282.957031 187.515625 282.957031 C 265.292969 282.957031 328.34375 219.824219 328.34375 141.945312 C 328.34375 108.589844 316.773438 77.9375 297.4375 53.796875 " fill-opacity="1" fill-rule="nonzero"/></g><g fill="#4b4949" fill-opacity="1"><g transform="translate(97.564536, 349.874977)"><g><path d="M 35.328125 0.046875 C 35.085938 0.046875 34.664062 0.0351562 34.0625 0.015625 C 33.46875 0.00390625 32.820312 0 32.125 0 C 31.4375 0 30.75 -0.00390625 30.0625 -0.015625 C 29.375 -0.0351562 28.816406 -0.046875 28.390625 -0.046875 C 27.972656 -0.046875 27.390625 -0.0351562 26.640625 -0.015625 C 25.890625 -0.00390625 25.128906 0 24.359375 0 C 23.597656 0 22.894531 0.00390625 22.25 0.015625 C 21.601562 0.0351562 21.160156 0.046875 20.921875 0.046875 L 20.921875 -2.5625 L 22.765625 -2.796875 C 23.398438 -2.878906 23.921875 -3.019531 24.328125 -3.21875 C 24.734375 -3.414062 25.046875 -3.722656 25.265625 -4.140625 C 25.492188 -4.554688 25.644531 -5.125 25.71875 -5.84375 C 25.789062 -6.570312 25.828125 -7.472656 25.828125 -8.546875 L 25.828125 -13.953125 L 10.9375 -13.953125 L 10.9375 -8.546875 C 10.9375 -7.472656 10.972656 -6.582031 11.046875 -5.875 C 11.117188 -5.164062 11.265625 -4.59375 11.484375 -4.15625 C 11.710938 -3.726562 12.03125 -3.414062 12.4375 -3.21875 C 12.84375 -3.019531 13.363281 -2.878906 14 -2.796875 L 15.84375 -2.5625 L 15.84375 0.046875 C 15.601562 0.046875 15.164062 0.0351562 14.53125 0.015625 C 13.90625 0.00390625 13.207031 0 12.4375 0 C 11.675781 0 10.921875 -0.00390625 10.171875 -0.015625 C 9.421875 -0.0351562 8.835938 -0.046875 8.421875 -0.046875 C 7.992188 -0.046875 7.4375 -0.0351562 6.75 -0.015625 C 6.0625 -0.00390625 5.363281 0 4.65625 0 C 3.945312 0 3.289062 0.00390625 2.6875 0.015625 C 2.09375 0.0351562 1.675781 0.046875 1.4375 0.046875 L 1.4375 -2.5625 L 3.109375 -2.796875 C 3.648438 -2.878906 4.09375 -3.007812 4.4375 -3.1875 C 4.78125 -3.375 5.046875 -3.675781 5.234375 -4.09375 C 5.429688 -4.507812 5.566406 -5.078125 5.640625 -5.796875 C 5.722656 -6.523438 5.765625 -7.457031 5.765625 -8.59375 L 5.765625 -22.234375 C 5.765625 -23.335938 5.722656 -24.25 5.640625 -24.96875 C 5.566406 -25.695312 5.429688 -26.269531 5.234375 -26.6875 C 5.046875 -27.101562 4.78125 -27.410156 4.4375 -27.609375 C 4.09375 -27.804688 3.648438 -27.929688 3.109375 -27.984375 L 1.4375 -28.21875 L 1.4375 -30.828125 C 1.675781 -30.828125 2.09375 -30.816406 2.6875 -30.796875 C 3.289062 -30.785156 3.945312 -30.78125 4.65625 -30.78125 C 5.363281 -30.78125 6.0625 -30.769531 6.75 -30.75 C 7.4375 -30.738281 7.992188 -30.734375 8.421875 -30.734375 C 8.835938 -30.734375 9.421875 -30.738281 10.171875 -30.75 C 10.921875 -30.769531 11.675781 -30.78125 12.4375 -30.78125 C 13.207031 -30.78125 13.90625 -30.785156 14.53125 -30.796875 C 15.164062 -30.816406 15.601562 -30.828125 15.84375 -30.828125 L 15.84375 -28.21875 L 14 -27.984375 C 13.363281 -27.898438 12.84375 -27.757812 12.4375 -27.5625 C 12.03125 -27.363281 11.710938 -27.046875 11.484375 -26.609375 C 11.265625 -26.179688 11.117188 -25.613281 11.046875 -24.90625 C 10.972656 -24.195312 10.9375 -23.304688 10.9375 -22.234375 L 10.9375 -17.0625 L 25.828125 -17.0625 L 25.828125 -22.234375 C 25.828125 -23.304688 25.789062 -24.195312 25.71875 -24.90625 C 25.644531 -25.613281 25.492188 -26.179688 25.265625 -26.609375 C 25.046875 -27.046875 24.734375 -27.363281 24.328125 -27.5625 C 23.921875 -27.757812 23.398438 -27.898438 22.765625 -27.984375 L 20.921875 -28.21875 L 20.921875 -30.828125 C 21.160156 -30.828125 21.601562 -30.816406 22.25 -30.796875 C 22.894531 -30.785156 23.597656 -30.78125 24.359375 -30.78125 C 25.128906 -30.78125 25.890625 -30.769531 26.640625 -30.75 C 27.390625 -30.738281 27.972656 -30.734375 28.390625 -30.734375 C 28.816406 -30.734375 29.375 -30.738281 30.0625 -30.75 C 30.75 -30.769531 31.4375 -30.78125 32.125 -30.78125 C 32.820312 -30.78125 33.46875 -30.785156 34.0625 -30.796875 C 34.664062 -30.816406 35.085938 -30.828125 35.328125 -30.828125 L 35.328125 -28.21875 L 33.65625 -27.984375 C 33.113281 -27.929688 32.671875 -27.804688 32.328125 -27.609375 C 31.984375 -27.410156 31.710938 -27.101562 31.515625 -26.6875 C 31.328125 -26.269531 31.191406 -25.695312 31.109375 -24.96875 C 31.035156 -24.25 31 -23.335938 31 -22.234375 L 31 -8.546875 C 31 -7.441406 31.035156 -6.523438 31.109375 -5.796875 C 31.191406 -5.078125 31.328125 -4.507812 31.515625 -4.09375 C 31.710938 -3.675781 31.984375 -3.367188 32.328125 -3.171875 C 32.671875 -2.972656 33.113281 -2.847656 33.65625 -2.796875 L 35.328125 -2.5625 Z M 35.328125 0.046875 "/></g></g></g><g fill="#4b4949" fill-opacity="1"><g transform="translate(135.310001, 349.874977)"><g><path d="M 33.203125 0.046875 C 32.960938 0.046875 32.585938 0.0351562 32.078125 0.015625 C 31.566406 0.00390625 31 0 30.375 0 C 29.75 0 29.117188 -0.00390625 28.484375 -0.015625 C 27.859375 -0.0351562 27.332031 -0.046875 26.90625 -0.046875 C 26.488281 -0.046875 25.945312 -0.0351562 25.28125 -0.015625 C 24.625 -0.00390625 23.957031 0 23.28125 0 C 22.613281 0 21.992188 0.00390625 21.421875 0.015625 C 20.847656 0.0351562 20.457031 0.046875 20.25 0.046875 L 20.25 -2.5625 L 21.375 -2.703125 C 22.15625 -2.785156 22.691406 -2.960938 22.984375 -3.234375 C 23.285156 -3.503906 23.4375 -3.894531 23.4375 -4.40625 C 23.4375 -4.832031 23.375 -5.269531 23.25 -5.71875 C 23.132812 -6.164062 22.957031 -6.703125 22.71875 -7.328125 L 21.640625 -10.125 L 10.4375 -10.125 L 9.8125 -8.546875 C 9.570312 -7.921875 9.359375 -7.269531 9.171875 -6.59375 C 8.992188 -5.914062 8.90625 -5.28125 8.90625 -4.6875 C 8.90625 -3.570312 9.535156 -2.925781 10.796875 -2.75 L 12.28125 -2.5625 L 12.28125 0.046875 C 12.039062 0.046875 11.664062 0.0351562 11.15625 0.015625 C 10.644531 0.00390625 10.082031 0 9.46875 0 C 8.851562 0 8.226562 -0.00390625 7.59375 -0.015625 C 6.96875 -0.0351562 6.445312 -0.046875 6.03125 -0.046875 C 5.613281 -0.046875 5.132812 -0.0351562 4.59375 -0.015625 C 4.050781 -0.00390625 3.515625 0 2.984375 0 C 2.460938 0 1.984375 0.00390625 1.546875 0.015625 C 1.117188 0.0351562 0.796875 0.046875 0.578125 0.046875 L 0.578125 -2.5625 L 1.75 -2.703125 C 2.207031 -2.765625 2.609375 -2.875 2.953125 -3.03125 C 3.296875 -3.195312 3.625 -3.457031 3.9375 -3.8125 C 4.25 -4.175781 4.554688 -4.664062 4.859375 -5.28125 C 5.160156 -5.894531 5.503906 -6.6875 5.890625 -7.65625 L 14.3125 -28.890625 L 17.453125 -31.59375 L 18.625 -31.59375 L 27.984375 -7.328125 C 28.347656 -6.429688 28.65625 -5.695312 28.90625 -5.125 C 29.164062 -4.5625 29.4375 -4.117188 29.71875 -3.796875 C 30.007812 -3.484375 30.332031 -3.257812 30.6875 -3.125 C 31.050781 -2.988281 31.488281 -2.878906 32 -2.796875 L 33.203125 -2.609375 Z M 16.015625 -24.484375 L 11.5625 -13.09375 L 20.46875 -13.09375 Z M 16.015625 -24.484375 "/></g></g></g><g fill="#4b4949" fill-opacity="1"><g transform="translate(170.086238, 349.874977)"><g><path d="M 32.078125 -0.046875 C 31.566406 0.046875 31.0625 0.113281 30.5625 0.15625 C 30.070312 0.195312 29.484375 0.21875 28.796875 0.21875 C 27.472656 0.21875 26.363281 0.140625 25.46875 -0.015625 C 24.570312 -0.179688 23.785156 -0.46875 23.109375 -0.875 C 22.429688 -1.28125 21.816406 -1.804688 21.265625 -2.453125 C 20.710938 -3.097656 20.117188 -3.898438 19.484375 -4.859375 L 14 -13 L 10.9375 -13 L 10.9375 -8.59375 C 10.9375 -7.488281 10.972656 -6.570312 11.046875 -5.84375 C 11.117188 -5.125 11.265625 -4.554688 11.484375 -4.140625 C 11.710938 -3.722656 12.03125 -3.414062 12.4375 -3.21875 C 12.84375 -3.019531 13.363281 -2.878906 14 -2.796875 L 15.84375 -2.5625 L 15.84375 0.046875 C 15.601562 0.046875 15.164062 0.0351562 14.53125 0.015625 C 13.90625 0.00390625 13.207031 0 12.4375 0 C 11.675781 0 10.921875 -0.00390625 10.171875 -0.015625 C 9.421875 -0.0351562 8.835938 -0.046875 8.421875 -0.046875 C 7.992188 -0.046875 7.4375 -0.0351562 6.75 -0.015625 C 6.0625 -0.00390625 5.363281 0 4.65625 0 C 3.945312 0 3.289062 0.00390625 2.6875 0.015625 C 2.09375 0.0351562 1.675781 0.046875 1.4375 0.046875 L 1.4375 -2.5625 L 3.109375 -2.796875 C 3.648438 -2.878906 4.09375 -3.007812 4.4375 -3.1875 C 4.78125 -3.375 5.046875 -3.675781 5.234375 -4.09375 C 5.429688 -4.507812 5.566406 -5.078125 5.640625 -5.796875 C 5.722656 -6.523438 5.765625 -7.457031 5.765625 -8.59375 L 5.765625 -22.234375 C 5.765625 -23.367188 5.722656 -24.296875 5.640625 -25.015625 C 5.566406 -25.734375 5.425781 -26.300781 5.21875 -26.71875 C 5.007812 -27.144531 4.738281 -27.445312 4.40625 -27.625 C 4.082031 -27.8125 3.648438 -27.929688 3.109375 -27.984375 L 1.4375 -28.21875 L 1.4375 -30.828125 C 1.675781 -30.828125 2.09375 -30.816406 2.6875 -30.796875 C 3.289062 -30.785156 3.945312 -30.78125 4.65625 -30.78125 C 5.363281 -30.78125 6.0625 -30.769531 6.75 -30.75 C 7.4375 -30.738281 7.992188 -30.734375 8.421875 -30.734375 C 8.835938 -30.734375 9.34375 -30.734375 9.9375 -30.734375 C 10.539062 -30.734375 11.171875 -30.738281 11.828125 -30.75 C 12.492188 -30.769531 13.148438 -30.78125 13.796875 -30.78125 C 14.441406 -30.78125 15.03125 -30.78125 15.5625 -30.78125 C 23.15625 -30.78125 26.953125 -28.019531 26.953125 -22.5 C 26.953125 -20.1875 26.269531 -18.328125 24.90625 -16.921875 C 23.539062 -15.515625 21.78125 -14.476562 19.625 -13.8125 L 24.5625 -6.609375 C 25.164062 -5.742188 25.738281 -5.03125 26.28125 -4.46875 C 26.820312 -3.914062 27.382812 -3.488281 27.96875 -3.1875 C 28.550781 -2.894531 29.15625 -2.703125 29.78125 -2.609375 C 30.414062 -2.515625 31.125 -2.5 31.90625 -2.5625 Z M 21.1875 -22 C 21.1875 -24.070312 20.617188 -25.601562 19.484375 -26.59375 C 18.347656 -27.582031 16.832031 -28.078125 14.9375 -28.078125 C 13.945312 -28.078125 13.160156 -28.007812 12.578125 -27.875 C 11.992188 -27.738281 11.445312 -27.566406 10.9375 -27.359375 L 10.9375 -15.703125 L 14.171875 -15.703125 C 16.753906 -15.703125 18.566406 -16.25 19.609375 -17.34375 C 20.660156 -18.4375 21.1875 -19.988281 21.1875 -22 Z M 21.1875 -22 "/></g></g></g><g fill="#4b4949" fill-opacity="1"><g transform="translate(202.837997, 349.874977)"><g><path d="M 26.859375 -21.921875 C 26.859375 -20.265625 26.554688 -18.835938 25.953125 -17.640625 C 25.359375 -16.441406 24.519531 -15.4375 23.4375 -14.625 C 22.363281 -13.8125 21.09375 -13.15625 19.625 -12.65625 C 18.15625 -12.164062 16.5625 -11.816406 14.84375 -11.609375 L 14.3125 -14.078125 C 16.53125 -14.535156 18.21875 -15.316406 19.375 -16.421875 C 20.53125 -17.535156 21.109375 -19.273438 21.109375 -21.640625 C 21.109375 -23.953125 20.484375 -25.601562 19.234375 -26.59375 C 17.992188 -27.582031 16.335938 -28.078125 14.265625 -28.078125 C 13.453125 -28.078125 12.78125 -28.015625 12.25 -27.890625 C 11.726562 -27.773438 11.289062 -27.628906 10.9375 -27.453125 L 10.9375 -8.59375 C 10.9375 -7.488281 10.972656 -6.570312 11.046875 -5.84375 C 11.117188 -5.125 11.265625 -4.554688 11.484375 -4.140625 C 11.710938 -3.722656 12.03125 -3.414062 12.4375 -3.21875 C 12.84375 -3.019531 13.363281 -2.878906 14 -2.796875 L 15.84375 -2.5625 L 15.84375 0.046875 C 15.601562 0.046875 15.164062 0.0351562 14.53125 0.015625 C 13.90625 0.00390625 13.207031 0 12.4375 0 C 11.675781 0 10.921875 -0.00390625 10.171875 -0.015625 C 9.421875 -0.0351562 8.835938 -0.046875 8.421875 -0.046875 C 7.992188 -0.046875 7.4375 -0.0351562 6.75 -0.015625 C 6.0625 -0.00390625 5.363281 0 4.65625 0 C 3.945312 0 3.289062 0.00390625 2.6875 0.015625 C 2.09375 0.0351562 1.675781 0.046875 1.4375 0.046875 L 1.4375 -2.5625 L 3.109375 -2.796875 C 3.648438 -2.878906 4.09375 -3.007812 4.4375 -3.1875 C 4.78125 -3.375 5.046875 -3.675781 5.234375 -4.09375 C 5.429688 -4.507812 5.566406 -5.078125 5.640625 -5.796875 C 5.722656 -6.523438 5.765625 -7.457031 5.765625 -8.59375 L 5.765625 -22.234375 C 5.765625 -23.367188 5.722656 -24.296875 5.640625 -25.015625 C 5.566406 -25.734375 5.425781 -26.300781 5.21875 -26.71875 C 5.007812 -27.144531 4.738281 -27.445312 4.40625 -27.625 C 4.082031 -27.8125 3.648438 -27.929688 3.109375 -27.984375 L 1.4375 -28.21875 L 1.4375 -30.828125 C 1.675781 -30.828125 2.09375 -30.816406 2.6875 -30.796875 C 3.289062 -30.785156 3.945312 -30.78125 4.65625 -30.78125 C 5.363281 -30.78125 6.0625 -30.769531 6.75 -30.75 C 7.4375 -30.738281 7.992188 -30.734375 8.421875 -30.734375 C 9.285156 -30.734375 10.316406 -30.738281 11.515625 -30.75 C 12.710938 -30.769531 13.835938 -30.78125 14.890625 -30.78125 C 18.703125 -30.78125 21.648438 -30.035156 23.734375 -28.546875 C 25.816406 -27.066406 26.859375 -24.859375 26.859375 -21.921875 Z M 26.859375 -21.921875 "/></g></g></g><g fill="#4b4949" fill-opacity="1"><g transform="translate(231.495809, 349.874977)"><g><path d="M 15.4375 0.046875 C 15.195312 0.046875 14.773438 0.0351562 14.171875 0.015625 C 13.578125 0.00390625 12.929688 0 12.234375 0 C 11.546875 0 10.859375 -0.00390625 10.171875 -0.015625 C 9.484375 -0.0351562 8.925781 -0.046875 8.5 -0.046875 C 8.082031 -0.046875 7.535156 -0.0351562 6.859375 -0.015625 C 6.179688 -0.00390625 5.488281 0 4.78125 0 C 4.082031 0 3.441406 0.00390625 2.859375 0.015625 C 2.273438 0.0351562 1.863281 0.046875 1.625 0.046875 L 1.625 -2.5625 L 3.28125 -2.796875 C 3.820312 -2.878906 4.265625 -3.007812 4.609375 -3.1875 C 4.953125 -3.375 5.222656 -3.675781 5.421875 -4.09375 C 5.617188 -4.507812 5.753906 -5.078125 5.828125 -5.796875 C 5.898438 -6.523438 5.9375 -7.457031 5.9375 -8.59375 L 5.9375 -22.234375 C 5.9375 -23.335938 5.898438 -24.25 5.828125 -24.96875 C 5.753906 -25.695312 5.617188 -26.269531 5.421875 -26.6875 C 5.222656 -27.101562 4.953125 -27.410156 4.609375 -27.609375 C 4.265625 -27.804688 3.820312 -27.929688 3.28125 -27.984375 L 1.625 -28.21875 L 1.625 -30.828125 C 1.863281 -30.828125 2.273438 -30.816406 2.859375 -30.796875 C 3.441406 -30.785156 4.082031 -30.78125 4.78125 -30.78125 C 5.488281 -30.78125 6.179688 -30.769531 6.859375 -30.75 C 7.535156 -30.738281 8.082031 -30.734375 8.5 -30.734375 C 8.925781 -30.734375 9.484375 -30.738281 10.171875 -30.75 C 10.859375 -30.769531 11.546875 -30.78125 12.234375 -30.78125 C 12.929688 -30.78125 13.578125 -30.785156 14.171875 -30.796875 C 14.773438 -30.816406 15.195312 -30.828125 15.4375 -30.828125 L 15.4375 -28.21875 L 13.765625 -27.984375 C 13.222656 -27.929688 12.78125 -27.804688 12.4375 -27.609375 C 12.09375 -27.410156 11.820312 -27.101562 11.625 -26.6875 C 11.4375 -26.269531 11.300781 -25.695312 11.21875 -24.96875 C 11.144531 -24.25 11.109375 -23.335938 11.109375 -22.234375 L 11.109375 -8.59375 C 11.109375 -7.457031 11.144531 -6.523438 11.21875 -5.796875 C 11.300781 -5.078125 11.4375 -4.507812 11.625 -4.09375 C 11.820312 -3.675781 12.09375 -3.375 12.4375 -3.1875 C 12.78125 -3.007812 13.222656 -2.878906 13.765625 -2.796875 L 15.4375 -2.5625 Z M 15.4375 0.046875 "/></g></g></g><g fill="#4b4949" fill-opacity="1"><g transform="translate(249.536377, 349.874977)"><g><path d="M 25.734375 0 L 20.828125 0 C 20.140625 0 19.332031 0 18.40625 0 C 17.476562 0 16.539062 -0.00390625 15.59375 -0.015625 C 14.644531 -0.0351562 13.765625 -0.046875 12.953125 -0.046875 C 12.148438 -0.046875 11.535156 -0.046875 11.109375 -0.046875 C 10.691406 -0.046875 9.992188 -0.0351562 9.015625 -0.015625 C 8.046875 -0.00390625 7.039062 0 6 0 C 4.96875 0 4.007812 0.00390625 3.125 0.015625 C 2.238281 0.0351562 1.675781 0.046875 1.4375 0.046875 L 1.4375 -2.5625 L 3.109375 -2.796875 C 3.648438 -2.878906 4.09375 -3.007812 4.4375 -3.1875 C 4.78125 -3.375 5.046875 -3.675781 5.234375 -4.09375 C 5.429688 -4.507812 5.566406 -5.078125 5.640625 -5.796875 C 5.722656 -6.523438 5.765625 -7.457031 5.765625 -8.59375 L 5.765625 -22.234375 C 5.765625 -23.367188 5.722656 -24.296875 5.640625 -25.015625 C 5.566406 -25.734375 5.425781 -26.300781 5.21875 -26.71875 C 5.007812 -27.144531 4.738281 -27.445312 4.40625 -27.625 C 4.082031 -27.8125 3.648438 -27.929688 3.109375 -27.984375 L 1.4375 -28.21875 L 1.4375 -30.828125 C 1.675781 -30.828125 2.238281 -30.816406 3.125 -30.796875 C 4.007812 -30.785156 4.96875 -30.78125 6 -30.78125 C 7.039062 -30.78125 8.046875 -30.769531 9.015625 -30.75 C 9.992188 -30.738281 10.691406 -30.734375 11.109375 -30.734375 C 11.535156 -30.734375 12.234375 -30.734375 13.203125 -30.734375 C 14.179688 -30.734375 15.191406 -30.738281 16.234375 -30.75 C 17.285156 -30.769531 18.25 -30.78125 19.125 -30.78125 C 20 -30.78125 20.554688 -30.78125 20.796875 -30.78125 L 24.609375 -30.78125 L 25.6875 -23.21875 L 23.484375 -23.21875 L 22.859375 -24.4375 C 22.472656 -25.1875 22.09375 -25.785156 21.71875 -26.234375 C 21.34375 -26.679688 20.90625 -27.023438 20.40625 -27.265625 C 19.914062 -27.503906 19.304688 -27.671875 18.578125 -27.765625 C 17.859375 -27.859375 16.976562 -27.90625 15.9375 -27.90625 L 15.03125 -27.90625 C 14.101562 -27.90625 13.285156 -27.84375 12.578125 -27.71875 C 11.867188 -27.601562 11.320312 -27.46875 10.9375 -27.3125 L 10.9375 -17.5 L 13 -17.5 C 13.988281 -17.5 14.828125 -17.535156 15.515625 -17.609375 C 16.210938 -17.691406 16.769531 -17.835938 17.1875 -18.046875 C 17.601562 -18.253906 17.925781 -18.546875 18.15625 -18.921875 C 18.382812 -19.296875 18.523438 -19.769531 18.578125 -20.34375 L 18.8125 -22.1875 L 21.0625 -22.1875 C 21.0625 -21.945312 21.050781 -21.570312 21.03125 -21.0625 C 21.019531 -20.550781 21.015625 -19.992188 21.015625 -19.390625 C 21.015625 -18.796875 21.003906 -18.191406 20.984375 -17.578125 C 20.972656 -16.960938 20.96875 -16.441406 20.96875 -16.015625 C 20.96875 -15.597656 20.972656 -15.109375 20.984375 -14.546875 C 21.003906 -13.992188 21.015625 -13.441406 21.015625 -12.890625 C 21.015625 -12.335938 21.019531 -11.828125 21.03125 -11.359375 C 21.050781 -10.898438 21.0625 -10.550781 21.0625 -10.3125 L 18.8125 -10.3125 L 18.578125 -12.015625 C 18.523438 -12.492188 18.382812 -12.890625 18.15625 -13.203125 C 17.925781 -13.523438 17.59375 -13.773438 17.15625 -13.953125 C 16.726562 -14.128906 16.175781 -14.25 15.5 -14.3125 C 14.820312 -14.375 13.988281 -14.40625 13 -14.40625 L 10.9375 -14.40625 L 10.9375 -8.59375 C 10.9375 -7.394531 10.992188 -6.421875 11.109375 -5.671875 C 11.234375 -4.921875 11.472656 -4.34375 11.828125 -3.9375 C 12.191406 -3.53125 12.6875 -3.25 13.3125 -3.09375 C 13.945312 -2.945312 14.789062 -2.875 15.84375 -2.875 L 17.09375 -2.875 C 18.144531 -2.875 19.015625 -2.910156 19.703125 -2.984375 C 20.398438 -3.066406 20.992188 -3.234375 21.484375 -3.484375 C 21.984375 -3.742188 22.410156 -4.101562 22.765625 -4.5625 C 23.128906 -5.03125 23.519531 -5.65625 23.9375 -6.4375 L 24.53125 -7.5625 L 26.8125 -7.5625 Z M 25.734375 0 "/></g></g></g></svg>